<?xml version="1.0" encoding="UTF-8"?>
<svg id="_图层_1" data-name="图层 1" xmlns="http://www.w3.org/2000/svg" xmlns:xlink="http://www.w3.org/1999/xlink" viewBox="0 0 933.08 230.23">
  <defs>
    <style>
      .cls-1 {
        fill: #0c852e;
      }

      .cls-2 {
        fill: #0d74b8;
      }

      .cls-3 {
        fill: url(#_未命名的渐变_16);
      }
    </style>
    <linearGradient id="_未命名的渐变_16" data-name="未命名的渐变 16" x1="933.08" y1="116.95" x2="741.45" y2="116.95" gradientUnits="userSpaceOnUse">
      <stop offset="0" stop-color="#113b6d"/>
      <stop offset=".27" stop-color="#0f528c"/>
      <stop offset=".54" stop-color="#0e64a4"/>
      <stop offset=".79" stop-color="#0d70b2"/>
      <stop offset="1" stop-color="#0d74b8"/>
    </linearGradient>
  </defs>
  <path class="cls-3" d="M902.54,25.46c-28.33-26.27-80.39-28.43-112.7-8.39-41.44,25.71-51.73,77.17-47.52,123.2,3.61,39.42,26.45,66.3,57.76,82.24,35.28,17.97,91.54,3.88,119.32-34.94.85-1.18,4.09-6.55,4.29-7.45.15-.66-.27-1.25-.75-1.67l-23.01-8.52c-3.98-.8-8.8-.62-11.97,1.93-8.01,6.44-11.85,14.21-21.99,19.75-21.16,11.56-49.8,7.28-66.13-10.29-23.16-24.9-22.23-76.06-13.21-106.75,8.36-28.44,29.57-43.31,60.22-40.22,15.72,1.58,26.44,11.68,30.18,17.6,6.12,9.67,12.43,21.65,15.6,45.32-.35.48-20.65.17-29.21.09-23.52-.24-73.83-1.73-73.92-1.12-.44,2.36-1.75,25.56-1.75,26.69l144.16.95c.4-2.05.82-4.91.93-7.07,1.63-32.07-6.06-68.84-30.33-91.35Z"/>
  <path class="cls-2" d="M326.32,28.19C303.42-1.7,263.16-2.61,229.13,2.17c-24.38,3.43-45.08,18.18-54.05,41.59-.55,1.42-3.06,7.3-2.21,8.28,2.3.9,4.84,1.52,7.12,2.44,3.23,1.3,4.84,1.94,8.84,3.01,2.1.56,3.43,1.46,5.85,1.67,15.29,1.36,20.61-16.02,30.84-23.08,16.47-11.37,50.84-9.15,64.66,5.69,11.51,12.36,9.17,26.21,9.67,42.09.73,23.55,2.49,52.15-3.03,75.04-7,29-30.11,40.33-58.84,38.6-22.23-1.34-37.86-14.54-39.27-37.44-2.73-44.41,54.23-40.85,83.97-40.21,1.23.03,6.27.19,6.87-.22l-.47-25.94c-28.07-.74-56.19-1.05-83.22,7.19-33.21,10.13-48.71,35.08-44.28,69.95,2.99,23.53,18.04,42.43,40.17,50.65,27.48,10.21,71.83,6.18,91.78-17.41.58-.69,6.17-9.86,6.81-8.95l.94,26.59c.96.49,1.98.69,3.05.72,5.19.14,27.85-.05,31.91-1.13.36-.1.6-.42.6-.79l-1.22-165.1c.04-.8-2.46-18.33-9.27-27.22Z"/>
  <path class="cls-2" d="M512.75,10.66c-25.59-14.17-71.15-13.01-93.37,7.35-4.12,3.78-6.61,8.73-10.2,12.38-.92.94-2.26,2-2.08-.19l-.07-24.71c-1.09-.43-36.2.06-36.99.08l-.09,52.88c-.66,40.98-.79,81.87-1.45,122.78-.2,12.29-.29,40.05-.75,40.78,2.62-.07,34.35.28,37.62-.28,1.71-34.54-.28-69.4.3-104.03.5-29.77,2.1-66.55,33.82-80.06,12.95-5.52,29.68-6.37,43.44.53,14.89,7.47,26.81,24.27,26.58,62.22-.01,2.28-.82,120.12-.95,122.88,0,0,36.4.46,37.21.14.29-.12.61-95.46.6-135.36-.01-29.88-5.02-61.57-33.61-77.4Z"/>
  <path class="cls-2" d="M43.36,189.49c-4.05-.46-5.92-3.38-5.92-7.3.07-52.27.24-105.3.68-157.25.06-7.3.62-14.65.23-21.97-.16-.61-.57-.67-1.11-.77-3.39-.63-35.96-.73-36.46.02-.16,52.75.17,105.57.01,158.34-.03,11.37-.41,22.88-.51,34.31-.12,13.43-3.19,24.91,13.98,25.49,39.75,1.34,138.2.11,138.2.11.87-1.66.97-16.45-2.77-23.26-1.38-2.51-6.31-7.07-11.27-7.28"/>
  <path class="cls-2" d="M578.97,90.92c-.59,40.3-2.3,132.4-1.79,132.52.72-.1,37.17.06,38.02.03l2.74-216.03-38.05-.54c-.59,27.87-.51,55.96-.92,84.02Z"/>
  <path class="cls-2" d="M680.87,126.93c-3.07-3.21-5.49-5.67-11.64-8.51-10.35-4.78-47.01-2.16-47.46-1.67,1.51,1.17,3.86,3.71,5.06,5.16,27.12,32.72,47.81,71.65,79.84,99.93,5.24,4.62,8.92,4.98,12.35,5.16,2.26.12,29-.4,37.11-.81-.1-.78-.18-.86-.52-1.38-8.14-12.58-67.15-89.95-74.74-97.88Z"/>
  <path class="cls-1" d="M708.85,58.85c14.54-16.51,23.75-36.22,28.98-57.6,0,0-.44-.09-1.59,0-3.4.27-12.26,3.55-15.88,4.87-38.53,14.03-66.85,45.51-79.09,84.19-.42,1.32-2.81,8.64-2.33,9.19,26.99-5.76,51.71-19.99,69.91-40.66Z"/>
</svg>